<svg id="Layer_1_copy" data-name="Layer 1 copy" xmlns="http://www.w3.org/2000/svg" viewBox="0 0 360 360"><defs><style>.cls-1{fill:#231f20;}</style></defs><title>Artboard 1</title><polygon class="cls-1" points="99.68 175.82 99.68 213.19 74.53 213.19 74.53 119.44 99.68 119.44 99.68 155.47 99.68 175.82"/><polygon class="cls-1" points="126.61 163.63 159.83 119.44 128.67 119.44 108.27 146.56 121.13 163.64 108.26 180.72 132.73 213.19 163.87 213.19 126.61 163.63"/><path class="cls-1" d="M178.62,148.86h7L176.21,161,186,175.13H178.5l-8.24-12.19v12.19h-6.39V148.86h6.39v11Z"/><path class="cls-1" d="M195.39,175.6c-6.78,0-9.9-5-9.9-10.06s3.07-10.22,9.86-10.22,10,4.93,10,10S202.21,175.6,195.39,175.6Zm-.08-15.89c-2.68,0-3.47,2.24-3.47,5.63s1,5.8,3.67,5.8S199,169,199,165.55,198,159.71,195.31,159.71Z"/><path class="cls-1" d="M230.66,155.33c4.14,0,5.56,2.72,5.56,6.35v13.45h-6V162.9c0-1.73-.51-2.6-2-2.6a4.32,4.32,0,0,0-3.15,1.93v12.9h-6V162.9c0-1.77-.63-2.6-2-2.6-1.7,0-2.76,1.54-3.15,2v12.82h-6V155.81h5.88v2.32a7.18,7.18,0,0,1,5.76-2.8c2.68,0,4.22,1.22,4.93,3A7.61,7.61,0,0,1,230.66,155.33Z"/><path class="cls-1" d="M250.47,175.6a7.13,7.13,0,0,1-4.34-1.26v9.43h-6v-28H246v2a6.5,6.5,0,0,1,5.29-2.48c4.89,0,7.85,3.63,7.85,10.14C259.14,171.58,255.51,175.6,250.47,175.6Zm-1.11-15.54a4.22,4.22,0,0,0-3.24,1.73v8.09a4.22,4.22,0,0,0,3,1.14c2.37,0,3.71-2,3.71-5.6C252.79,162,251.61,160.06,249.36,160.06Z"/><path class="cls-1" d="M272.32,175.13a10.19,10.19,0,0,1-.35-2,6.68,6.68,0,0,1-5.29,2.48c-3.31,0-5.92-2-5.92-5.52,0-5,5.05-6.9,10.26-6.9h.63v-.9c0-1.43-.59-2.25-2.92-2.25a8.24,8.24,0,0,0-4.85,1.74l-2.53-3.59a12,12,0,0,1,8.13-2.84c5.6,0,8.16,2.09,8.16,7.38V169a29.81,29.81,0,0,0,.55,6.11Zm-.67-8.36H271c-2.72,0-4.58.83-4.58,2.8,0,1.23.95,1.81,2.17,1.81a4.08,4.08,0,0,0,3-1.38Z"/><path class="cls-1" d="M287.47,175.6a12.56,12.56,0,0,1-7.06-1.81l1.93-4.14a9.36,9.36,0,0,0,4.77,1.58c1.89,0,2.92-.47,2.92-1.42,0-1.14-2.37-1.38-5.09-2.76-2.56-1.26-4-2.76-4-5.6,0-3.79,3-6.12,7.53-6.12a12.39,12.39,0,0,1,6.35,1.5l-2,4a8.82,8.82,0,0,0-4.1-1.14c-1.77,0-2.48.55-2.48,1.42,0,1.15,1.85,1.38,4.06,2.25,3,1.23,5,2.64,5,5.88C295.4,173.47,292.4,175.6,287.47,175.6Z"/></svg>